<?xml version="1.0" encoding="utf-8"?>
<!-- Generator: Adobe Illustrator 24.1.0, SVG Export Plug-In . SVG Version: 6.00 Build 0)  -->
<svg version="1.1" id="Layer_1" xmlns="http://www.w3.org/2000/svg" xmlns:xlink="http://www.w3.org/1999/xlink" x="0px" y="0px"
	 viewBox="0 0 318.4 304" style="enable-background:new 0 0 318.4 304;" xml:space="preserve">
<style type="text/css">
	.st0{fill:#FE9016;}
	.st1{fill:#EAA000;}
	.st2{fill:#C44615;}
	.st3{fill:#000200;}
	.st4{fill:#E01C16;}
	.st5{fill:#F4D000;}
	.st6{fill:url(#SVGID_1_);}
	.st7{fill:#821052;}
</style>
<circle class="st0" cx="741.4" cy="225.9" r="307.5"/>
<g transform="matrix(2.4885 0 0 2.4885 -583.29 -376.88)">
	<path class="st1" d="M506.8,225.3c-9-22.5-23-15.7-30.6-12.5c-3.2,1.4-3.2,4.1-1.2,7.8c-3.1,0.2-15.1,19.1,1.1,16
		c0.8,12.5,8.1,14.3,11.7,5c11.7,4.4-1-25,14.6-14.6L506.8,225.3z"/>
	<path class="st2" d="M479.6,217.9c-6.2,4-3.6,12.8-5.5,13.3C469.9,232.3,471.6,221.9,479.6,217.9z"/>
	<path class="st2" d="M495.4,213.3c-6.6-3.3-12.9,3.3-14.3,1.9C478,212.1,487.9,208.3,495.4,213.3z"/>
	<path class="st2" d="M480.4,229.9c-3.3,6.6,3.3,12.9,1.9,14.3C479.2,247.2,475.5,237.4,480.4,229.9z"/>
	<path class="st2" d="M491.3,219.8c-7,2.3-5.4,7.4-7.4,7.2C481.7,226.8,482.5,221.6,491.3,219.8z"/>
	<path class="st2" d="M502.2,222c-5.5-4.9-9.1-1-9.9-2.8C491.3,217.1,496.2,215.3,502.2,222z"/>
	<path class="st2" d="M485.2,235.2c1.6,1.5,3.5,2.6,6.9,1.6C489.2,239.3,486.6,239.4,485.2,235.2L485.2,235.2z"/>
	<path class="st2" d="M499,274.4c1.9-9.4,5.9-14.1,11.5-20.3c-6.1-3.7-10.6-11.5-10.9-18.6c-0.3-5.9,1.4-14,13.6-14.5
		c9.1-0.4,16.3,2.6,22.4-3.3c7.5-7.3,11.1-21.4,32.2-28c7.5-2.3,25.2,1.4,26.4,13.1c0.3,3.5-6.6,0.1-6.7,1.7
		c-0.1,3.6,3.3,6.6,3.3,11.4c0.1,11-5.6,18.2-15.8,17.4c-8.6-0.6-5.5-15.8-9.3-17.9c-2.5-0.2-4.6,5.3-6.4,11.1
		c-0.8,2.5-0.8,3.8-0.3,6c1.7,7.1-2,11.8-6.5,16.3c5.5,7.9,15.6,9.8,23.8,12.6l-11.6,12.6c-8.6-5.3-14.6-12.3-18.1-21.2
		c-9.1,5.1-19.5,6.6-29.4,4.3c-4.4,4.5-3.5,13.4-2.7,25.2L499,274.4z"/>
	<path class="st3" d="M568.1,259l-8.1,11.9c1.5,1.2,3.1,2.3,4.8,3.3l11.6-12.6C573.7,260.7,570.9,259.9,568.1,259L568.1,259z
		 M499.7,271.8c-0.2,0.8-0.5,1.7-0.7,2.6l15.6,8.2c-0.2-2.7-0.4-5.3-0.5-7.7L499.7,271.8L499.7,271.8z"/>
	<path class="st4" d="M490.8,266.2c-0.9-1.1-5.7,3.6-4.9,5.5c18.1,41.3,90.4,39.4,99-12.6c0.6-3.9-5.3-5-7.8-1.1
		C555.4,292.3,506.5,286.7,490.8,266.2L490.8,266.2z"/>
	<path class="st5" d="M581.5,255.6c-1.6,0-3.3,0.8-4.4,2.5c-21.7,34.2-70.5,28.6-86.3,8.1c-0.5-0.6-2.3,0.7-3.6,2.2l0.7,4.6l4-0.4
		l0.1,5.6l6.4-1.6v8.6l8.6-4.8l1,11.6l7.9-7.8l3.2,12.4l7.7-11l6,12.3l5.7-13.3l8,12.4l2-14.2l9.7,10.3l0.5-14.6l9.3,7l-1.2-11.9
		l9.8,3l-4.2-8.2l8.3-0.5l-2.3-6.3l6.2-1c0.1-0.4,0.2-0.7,0.2-1.1C585.1,256.9,583.5,255.6,581.5,255.6L581.5,255.6z"/>
	
		<linearGradient id="SVGID_1_" gradientUnits="userSpaceOnUse" x1="252.8326" y1="278.7321" x2="258.4826" y2="253.092" gradientTransform="matrix(2.4885 0 0 -2.4885 -104.7688 914.3647)">
		<stop  offset="0" style="stop-color:#F4D000"/>
		<stop  offset="0.8086" style="stop-color:#F4D000"/>
		<stop  offset="1" style="stop-color:#EAA000"/>
	</linearGradient>
	<path class="st6" d="M536.6,216.7c-0.3,0.4-0.7,0.7-1,1c-6.1,5.9-13.3,2.8-22.4,3.2c-0.5,0-0.9,0.1-1.3,0.1
		c-0.7,11.2-0.2,23.5,15.2,26.3l2.3,10.8c0.4,1.5,6.6,0.7,6.2-0.9l-3.3-11.2C540,242.8,545.2,231.1,536.6,216.7L536.6,216.7z"/>
	<path class="st4" d="M534.6,218.5c-5.2,4.2-11.3,2.6-18.6,2.4c0.1,8,2.3,20.6,11.8,19.7C537.6,239.8,537.5,226.7,534.6,218.5
		L534.6,218.5z"/>
	<path class="st4" d="M513.9,222.2c0.6,0,1,0.5,1,1s-0.5,1-1,1c-0.6,0-1-0.5-1-1S513.3,222.2,513.9,222.2z"/>
	<path class="st4" d="M514.2,226.5c0.6,0,1,0.5,1,1s-0.5,1-1,1c-0.6,0-1-0.5-1-1S513.6,226.5,514.2,226.5z"/>
	<path class="st4" d="M514.6,230.2c0.6,0,1,0.5,1,1s-0.5,1-1,1c-0.6,0-1-0.5-1-1S514.1,230.2,514.6,230.2z"/>
	<path class="st4" d="M515.6,234.2c0.6,0,1,0.5,1,1s-0.5,1-1,1c-0.6,0-1-0.5-1-1S515,234.2,515.6,234.2z"/>
	<path class="st4" d="M529.3,242.4c0.6,0,1,0.5,1,1s-0.5,1-1,1c-0.6,0-1-0.5-1-1S528.7,242.4,529.3,242.4z"/>
	<path class="st4" d="M525,242.2c0.6,0,1,0.5,1,1s-0.5,1-1,1c-0.6,0-1-0.5-1-1S524.4,242.2,525,242.2z"/>
	<path class="st4" d="M520.7,240.2c0.6,0,1,0.5,1,1s-0.5,1-1,1c-0.6,0-1-0.5-1-1S520.1,240.2,520.7,240.2z"/>
	<path class="st4" d="M517.5,237.5c0.6,0,1,0.5,1,1s-0.5,1-1,1c-0.6,0-1-0.5-1-1S516.9,237.5,517.5,237.5z"/>
	<path class="st4" d="M533.4,240.5c0.6,0,1,0.5,1,1s-0.5,1-1,1c-0.6,0-1-0.5-1-1S532.8,240.5,533.4,240.5z"/>
	<path class="st4" d="M536.1,237.2c0.6,0,1,0.5,1,1s-0.5,1-1,1c-0.6,0-1-0.5-1-1S535.6,237.2,536.1,237.2z"/>
	<path class="st4" d="M537.8,233.5c0.6,0,1,0.5,1,1s-0.5,1-1,1c-0.6,0-1-0.5-1-1S537.3,233.5,537.8,233.5z"/>
	<path class="st4" d="M538.4,229.5c0.6,0,1,0.5,1,1s-0.5,1-1,1c-0.6,0-1-0.5-1-1S537.9,229.5,538.4,229.5z"/>
	<path class="st4" d="M538.2,225.5c0.6,0,1,0.5,1,1s-0.5,1-1,1c-0.6,0-1-0.5-1-1S537.7,225.5,538.2,225.5z"/>
	<path class="st4" d="M537.8,222c0.6,0,1,0.5,1,1s-0.5,1-1,1c-0.6,0-1-0.5-1-1S537.2,222,537.8,222z"/>
	<path class="st4" d="M536.4,218.3c0.6,0,1,0.5,1,1s-0.5,1-1,1c-0.6,0-1-0.5-1-1S535.8,218.3,536.4,218.3z"/>
	<path class="st2" d="M576,190.8c0,0,5.9-8.1,9.1-6.4c1.3,0.7-2.8,8.5-2.8,8.5L576,190.8z"/>
	<path class="st1" d="M572.9,189.1c-1.9,0-3.7,0.2-5.1,0.7c-14.5,4.5-20.7,12.5-25.6,19.5c-10.2,12.6,5.6,19.2,6.5,7.1
		c5.7,4.8,9.5,4.1,9.2-8.4c3,3.1,5.8,4,7.5-2.5l5.2,11l-3.3,1.9c0.2,0.7,0.3,1.4,0.4,2.1c5.6-3.5,16.1-5.3,23-5
		c-0.2-2.3-0.5-3.1-1.4-5c-4.7,0.7-10.9,1.2-16,4.4l-5.7-11.5c1.4-3.6,4.4-6.2,5.7-4.3c1.7,2.4,3.8,3,5.9,2.8
		c3.9-0.3,6.1,4.9,7.4,4.6l0.9-0.2c-0.1-0.5-0.1-1.1-0.2-1.6c0.1-1.6,7.1,1.8,6.7-1.7C593.3,193.3,581.4,189.1,572.9,189.1
		L572.9,189.1z"/>
	<path class="st5" d="M567.7,203.3l-2.2,2.2l5.2,11l-3.2,1.9c0.2,0.7,0.3,1.4,0.4,2.1c5.6-3.5,16.1-5.3,23-5c-0.2-2.3-0.5-3.1-1.4-5
		c-4.7,0.7-10.9,1.2-16,4.4L567.7,203.3L567.7,203.3z"/>
	<path class="st3" d="M572.6,213.8c1.6,0,2.8,1.2,2.8,2.8s-1.2,2.8-2.8,2.8s-2.8-1.2-2.8-2.8S571,213.8,572.6,213.8z"/>
	<path class="st2" d="M542,211.9c0.3,2.4,0.7,6.2,4.2,6.5C539.9,221.7,540.9,215.1,542,211.9z"/>
	<path class="st2" d="M558.4,197.7c0.3,2.4,0.7,6.2,4.2,6.5C556.2,207.6,557.3,201,558.4,197.7z"/>
	<path class="st2" d="M548.8,208.1c0.3,2.4,0.4,5.6,3.2,6.5C547.2,214.8,547.7,211.3,548.8,208.1z"/>
	<path class="st2" d="M554.4,209.4c-0.1,1.5,0.2,4-1.9,4.8C556.6,214.4,555.6,211.5,554.4,209.4z"/>
	<path class="st2" d="M575.6,191.7c1.1,2.2,2.7,5.6,6.1,4.6C576.9,201.7,575.7,195.1,575.6,191.7z"/>
	<path class="st2" d="M581.7,196.4c2.3,0.9,5.1,2.2,7.2,0.2c-1.9,4.3-5,2.4-7.4,0C581.5,196.5,581.7,196.4,581.7,196.4L581.7,196.4z
		"/>
	<path class="st2" d="M574.4,195c0.4,0.9,1.1,2.2,2.4,1.9C574.9,199,574.4,196.4,574.4,195z"/>
	<path class="st2" d="M572.9,202.1c0-0.1,0.3-2.9,0.6-6.5c1.9-6.2,0.9-15.5-2-15.5c-3.3,0-3.8,9.3-2.3,15.7c0.3,3.5,0.7,6.2,0.7,6.3
		L572.9,202.1z"/>
	<path class="st5" d="M573.5,195.9l-4.2,0.2c0.1,1,0.2,1.8,0.3,2.6l3.7,0C573.4,197.8,573.4,197,573.5,195.9L573.5,195.9z"/>
	<path class="st3" d="M575.4,205.3c0.8-0.3,1.8,0.2,2.2,1.2l0,0c0.4,1,0.1,2.1-0.7,2.4l0,0c-0.8,0.3-1.8-0.2-2.2-1.2l0,0
		C574.3,206.7,574.6,205.7,575.4,205.3L575.4,205.3"/>
	<path d="M568.6,224.9c0.1,0.7,0.2,1.3,0.4,2c2,3.5,5.9,5.8,9.3,6.4c0.9,0,1-0.1,1.8-0.3l0-0.1c-6-0.7-9.7-3.9-11.4-8L568.6,224.9z"
		/>
	<path class="st4" d="M572.6,214.1c1.4,0,2.6,1.1,2.6,2.6s-1.1,2.6-2.6,2.6s-2.6-1.1-2.6-2.6S571.1,214.1,572.6,214.1z"/>
</g>
<g>
	<g>
		<path class="st7" d="M552,79.1c24-26,50.7-46,82.3-62c3.5,3.6,5.3,5.4,8.9,8.9c-22.4,11.8-41.9,25.4-60.5,42.5
			c13.3,7.8,26.5,15.5,39.8,23.3c13.5-14,27.5-25.5,43.9-36.1c3.6,3.5,5.4,5.2,9,8.7c-15.1,10.2-27.9,21.3-40.1,34.8
			c18.1,10.6,36.1,21.2,54.2,31.8c-2.6,4.6-3.7,6.9-5.7,11.8C639.8,121.6,595.9,100.3,552,79.1z"/>
		<path class="st7" d="M689.8-2.4c10.6,16.6,21.2,33.3,31.9,49.9c9.3,14.8,25.5,22.2,42.3,18.1c13.5-3.3,26.6-13.8,22.9-29.4
			c-3.1-15.1-6.3-30.2-9.4-45.3c9.5,0.8,14.2,1.3,23.6,2.9c1.3,14,2.7,28.1,4,42.1c2.3,21.9-20.5,33.1-37.9,38.4
			c-24.5,7.4-46.4-0.3-62.4-20.5C691.9,37.3,679,20.7,666.2,4.2C675.5,1.1,680.3-0.2,689.8-2.4z"/>
		<path class="st7" d="M833.4,66.8c2.2-21.1,4.4-42.2,6.6-63.4c9.5,3.2,14.2,5,23.2,9.2c12.7,15.6,24.5,31.6,34.5,49
			c6,10.4,9.3,18.4,11.4,24.8c0.1,0.1,0.2,0.1,0.4,0.2c2.6-4.5,5.7-8.3,10.1-12.7c4.8-4.7,7.1-7.1,11.9-11.8
			c5.6,6.3,8.3,9.6,13.3,16.6c-9.8,6.6-19.6,13.3-29.3,19.9c-5.2-3.9-7.8-5.7-13.2-8.9c-7.3-13.8-15.4-27-24-40.1
			c-7-9.9-14-19.7-20.9-29.7c-0.3-0.1-0.4-0.1-0.7-0.2c-0.4,7.8-1.5,14.8-3.7,24.4c-2.2,9.9-3.3,14.8-5.5,24.6
			C841.7,67.8,838.9,67.4,833.4,66.8z"/>
	</g>
</g>
<g>
	<g>
		<path class="st7" d="M477.1,306.8c1.7-10.5,2.7-15.7,5-25.9c2-10.1,3.7-16.4,5.7-22.5c-0.1-0.1-0.1-0.2-0.2-0.4
			c-5.4-1.4-10.5-3-19.2-7.2c-8.5-3.7-12.8-5.8-21.3-10.5c-3.1-9.1-4.5-13.7-7.1-23.3c15.9,11.3,31.9,20.7,49.6,28.8
			c6-17.8,13-34.7,21.2-51.6c2,7.3,3.2,10.9,5.5,17.8c-4.3,9-6.3,13.6-10.1,23.2c-2.6,6.7-4.4,11.9-6.5,17.2
			c0.1,0.2,0.1,0.3,0.2,0.5c5.4,1.1,9.8,2.3,15.9,3.7c9,2.2,13.5,3,22.3,4.1c3.3,5.8,5,8.6,8.6,14c-16.5-1.2-32.4-5.1-48.2-10
			c-5.2,19.9-8.1,40.2-10.1,60.6C483.8,318.1,481.5,314.4,477.1,306.8z"/>
		<path class="st7" d="M568.4,300.7c-8.3,4.4-19.4,7.8-28.8,7.9c-2.6-2.9-3.9-4.3-6.5-7.4c7.3-1.4,18.5-6.3,25.5-10.7
			C562.4,294.8,564.4,296.8,568.4,300.7z"/>
		<path class="st7" d="M624.8,435.5c-11.1-1.1-22-5.8-31.6-11c-23.4-12.7-47.6-44.4-29.3-69.9c15.3-21.3,46.2-15.4,66.4-4.2
			c10.4,5.8,16.9,10.6,19.5,13.2c-2.2,2.8-3.4,4.1-5.7,6.9c-3.9-3.8-9.7-7.9-17-11.9c-16.4-9-39.1-12.4-50.8,5.9
			c-13.4,21.1,5,43.8,23.4,53.7c8.6,4.6,18.2,7.6,24.7,8.2C624.6,430,624.7,431.8,624.8,435.5z"/>
		<path class="st7" d="M665.7,362.5c4.7,1.6,7,2.3,11.7,3.6c-2.7,11.8-5.5,23.7-8.2,35.5c0.1,0,0.2,0.1,0.3,0.1
			c2.8-2.4,6.7-4.1,11.1-4.9c4.2-0.8,9.1-1.2,14-0.3c13.8,2.5,25.3,12.6,24.2,28c-0.6,11.6-1.2,23.2-1.9,34.8
			c-6.5-0.4-9.7-0.7-16.1-1.4c1.1-11.2,2.3-22.3,3.4-33.5c1.4-10.2-5.7-18.4-15.6-20c-8.6-1.4-16.6,1.2-20.5,6.2
			c-1.1,1.2-1.6,2.7-2.1,4.7c-2.6,11.5-5.3,22.9-7.9,34.4c-6.3-1.7-9.4-2.7-15.6-4.7C650.2,417.4,658,390,665.7,362.5z"/>
		<path class="st7" d="M792.1,453.9c-1-2.8-1.5-4.2-2.5-7c-0.2,0-0.3,0.1-0.5,0.1c-6.2,8.4-17.3,11.9-25.7,12.6
			c-9.1,0.9-27.2-1.6-27.3-15.3c-0.2-19.2,32.8-23.9,47.4-26.6c-0.1-0.5-0.1-0.7-0.2-1.2c-0.8-4.8-3.8-12.5-19.1-10.6
			c-7,0.9-14.2,3.1-19.4,6c-1.4-2.8-2-4.1-3.3-6.9c6.1-3.3,15.1-5.7,23.9-7.1c13.9-2.3,29.4,2.6,32.4,18.1
			c1.8,8.5,2.7,12.8,4.4,21.3c1,4.9,2.4,9.7,4.3,13.3C800.8,452,797.9,452.7,792.1,453.9z M785,424.9c-10.3,1.6-33.1,5.1-33.5,17.6
			c-0.2,6.4,7.3,9.8,15.4,8.8c11.3-1.3,17.7-7.5,19.4-12.9c0.3-1.2,0.5-2.4,0.3-3.5C786,430.9,785.7,428.9,785,424.9z"/>
		<path class="st7" d="M818.5,402.6c-1.7-5.8-3.2-10.4-5-14.9c4.6-1.6,6.8-2.5,11.3-4.3c1.5,3.5,2.3,5.3,3.8,8.8
			c0.1,0,0.2-0.1,0.3-0.1c2.7-9.9,11.3-16.3,19-21c10.9-6.6,27.5-7,34.8,6.9c5.5,9.9,11.1,19.7,16.6,29.6c-5.6,3.9-8.4,5.7-14.1,9.3
			c-4.9-9.8-9.8-19.7-14.7-29.5c-4.1-8.3-11.4-12.4-23.3-6.2c-8.3,4.3-13.2,11.7-13.6,18.2c-0.2,1.5,0.1,3.3,0.7,5
			c3.8,11,7.5,21.9,11.3,32.9c-6.1,2.6-9.1,3.7-15.3,5.9C826.4,429.7,822.4,416.1,818.5,402.6z"/>
		<path class="st7" d="M936.8,291.5c2.8,2.9,5.9,6.1,10.9,10.5c8,7,15.9,13.9,23.9,20.9c8.7,7.1,12.7,18,9.9,28.9
			c-3.3,12.9-11.1,24.6-20.2,34.3c-7.7,8.2-17,15.8-27.6,19.9c-0.4-3.8-0.6-5.7-1-9.4c9.4-3.6,16.9-10.4,23.9-17.1
			c9.3-8.9,19.9-27.6,8-39.1c-1.8-1.7-2.6-2.6-4.4-4.3c-0.1,0.1-0.1,0.2-0.2,0.3c0.1,11.5-6.1,23.1-13.9,30.5
			c-11.3,10.7-33.2,22.4-44.9,4.7c-10.4-15.6-2-36.9,9.8-49.6c9.6-10.3,17.8-13.2,23.3-13c0.1-0.1,0.1-0.2,0.2-0.3
			c-2.2-2.5-3.3-3.8-5.5-6.3C932.1,298.2,933.7,296,936.8,291.5z M943,319.6c-1.2-1.2-2.4-2.1-3.8-2.5c-5.9-1.8-13.9,1.2-21.3,9
			c-8.6,9-12.2,24.2-4.9,34.6c7.9,11.1,23.9,5.4,31.6-3.4c5.2-5.9,10.8-17.4,8.5-25.9c-0.6-2-1.8-3.6-3-4.8
			C947.2,323.7,945.8,322.4,943,319.6z"/>
		<path class="st7" d="M978.2,277.7c14.9,8.5,26.6-12.7,30.8-23.5c3.8-9.8,6.6-20.1,7.7-30.6c3-0.4,4.5-0.6,7.4-1
			c-1.2,13.1-4.8,26.1-9.5,37.6c-5.6,13.8-24.6,48-45.3,31.9c-16.6-12.9-11.9-39.4-4.7-55.4c5.9-13.2,17.9-35.2,36.1-29.4
			c1.8,0.6,3.2,1.6,4,2.1C997.7,233.1,989.1,255.5,978.2,277.7z M993,224.4c-11.2-4.4-19.1,8.4-22.8,16.9
			c-4.2,9.6-5.4,23.9,2.3,32.4C980.4,257.6,987.1,241.3,993,224.4z"/>
	</g>
</g>
</svg>
